<svg xmlns="http://www.w3.org/2000/svg" viewBox="0 0 64 64" width="64" height="64">
  <defs>
    <linearGradient id="g" x1="0" x2="1" y1="0" y2="1">
      <stop offset="0%" stop-color="#f59e0b"/>
      <stop offset="100%" stop-color="#10b981"/>
    </linearGradient>
  </defs>
  <path fill="url(#g)" d="M52 22h-4a4 4 0 1 1-8 0h-4a4 4 0 1 1-8 0h-4a4 4 0 1 1-8 0H12a4 4 0 0 0-4 4v12a4 4 0 0 1 0 8v6a4 4 0 0 0 4 4h4a4 4 0 1 1 8 0h4a4 4 0 1 1 8 0h4a4 4 0 1 1 8 0h4a4 4 0 0 0 4-4v-6a4 4 0 0 1 0-8V26a4 4 0 0 0-4-4Z"/>
  <g fill="#ffffff" stroke="#ffffff" stroke-width="1.5" stroke-linecap="round">
    <line x1="20" y1="42" x2="44" y2="26"/>
    <circle cx="22" cy="30" r="3" fill="#ffffff"/>
    <circle cx="42" cy="38" r="3" fill="#ffffff"/>
  </g>
</svg>
